<svg xmlns="http://www.w3.org/2000/svg" viewBox="0 0 276.31 128.63"><defs><style>.cls-1{fill:#d4d4d4;}.cls-2{fill:#683c11;}.cls-3{fill:#f9b233;}.cls-4{fill:#fbe3ef;}.cls-5{fill:#b17f4a;}.cls-6{fill:#7d4e24;}.cls-7{fill:#ededed;}.cls-8{font-size:60px;fill:#1d1d1b;font-family:Quicksand-Bold, Quicksand;font-weight:700;}.cls-9{letter-spacing:0em;}</style></defs><g id="Ebene_2" data-name="Ebene 2"><g id="Ebene_1-2" data-name="Ebene 1"><path class="cls-1" d="M154.47,54.9C147.65,60.15,145.94,70.41,144,82c-1.21,7.21-3.39,20.26,1,28.85,16.09,31.39,124.24,11.75,124.34,11.75s9.27-11.49,6.38-17.19c-1.14-2.26-3.86-3-4.77-3.24C250.45,96.15,179,36,154.47,54.9Z"/><path class="cls-2" d="M269.3,66.48s7.18,3.49,6.89,13.4-10.5-9.95-10.5-9.95"/><path class="cls-2" d="M157,19.55c-.06,0-7.75,5.63-9.51,12.72s12.71-7.12,12.71-7.12"/><path class="cls-3" d="M276.19,78.38v37.74a6.66,6.66,0,0,1-9.13,6.17L151.16,75.92A6.66,6.66,0,0,1,147,69.74V35.26A8.86,8.86,0,0,1,159.13,27L272,72.2A6.65,6.65,0,0,1,276.19,78.38Z"/><polygon class="cls-4" points="276.15 115.89 159.49 69.91 159.52 55.8 276.19 101.79 276.15 115.89"/><polygon class="cls-5" points="276.15 101.9 159.49 55.92 159.52 41.82 276.19 87.8 276.15 101.9"/><path class="cls-2" d="M159.49,25.43a17.77,17.77,0,0,1,7.1,7.27c.88,1.7,2.51,4.86,1.84,8.53s-2.75,3.85-3.26,7.36c-.39,2.71.25,6.84,2.76,7.78,2.25.84,5.4-1.11,6.61-3.51s.24-5.28-1.59-10.21c-1.53-4.1-3.66-5.28-3-6.52.75-1.42,4.17-1.61,6.44-.33,2.53,1.42,3.44,4.56,3.76,5.68.76,2.62.23,4.08,1.5,5.1a3,3,0,0,0,3.1.42,3.24,3.24,0,0,0,1.34-3.59c-.62-2.19-3.64-2.34-3.68-3.77,0-1.15,1.89-2.18,3.18-2.59,3-.95,6.48.3,8.69,2.26.84.74,1.84,2.36,3.85,5.6,1.57,2.55,1.9,3.36,3.09,4.43a9.42,9.42,0,0,0,4.52,2.43c4.31.73,6.09-3.45,9.87-2.76,2.38.44,3.85,2.5,5.35,4.6,1.18,1.65,3.42,4.8,3.26,8.69-.06,1.32-.39,2.83.5,3.6a1.74,1.74,0,0,0,1.92.25c.74-.42.7-1.6.67-2.34-.08-2.17-1.09-2.89-1.34-4.27-.43-2.45,1.8-5.92,4.19-6.35s3.44,2.76,9.7,7.11a40.2,40.2,0,0,0,8.78,4.6c.94.37,6.56,1.86,7.77,1.75,15.14-1.41,0-1.42-5.6-5.77"/><path class="cls-2" d="M270.93,67.55l-67.6-67A2,2,0,0,0,201.1.17l-43,18.66a4.23,4.23,0,0,0,.11,7.81L268.75,70.87A2,2,0,0,0,270.93,67.55Z"/><path class="cls-6" d="M168.15,25.93a14.07,14.07,0,0,0-5.1-2.51c-1.34-.43-1.75-.43-1.93-.83-.54-1.24,2.26-3.5,2.43-3.64a14,14,0,0,1,6-2.55c8.89-2.22,9.76-4.23,12.41-3.14s2.54,3.51,5.1,3.89c2.32.35,2.82-1.55,6.53-2.09.94-.14,4.42-.6,7,1.51.77.61,1.84,1.48,1.76,2.5-.21,2.57-7.46,2.48-7.9,4.9-.48,2.57,7.15,6.18,12.66,8.78,1.17.55,1.14.51,8.91,3.88,8.49,3.7,9.78,4.3,10.54,6,.27.62,0,3.67-.63,9.78-.15,1.47-.3,2.93-1,3.09-.51.13-1.08-.55-2.64-2.63-3-4-2.79-4-3.43-4.56-2.29-1.83-5.44-1.55-6.94-1.42-3.54.32-4,1.79-6.06,1.55-3.13-.37-4.19-3.91-7.11-7.11A32.37,32.37,0,0,0,186.58,35a29.74,29.74,0,0,0-4.05-1,7.35,7.35,0,0,1-2.95-.56,5.86,5.86,0,0,1-1.88-1.57c-.75-.94-.59-1.32-1.19-2.13a5.6,5.6,0,0,0-2.82-1.89c-1.81-.52-2.62.3-4-.43C168.94,27,169.12,26.78,168.15,25.93Z"/><path class="cls-6" d="M187.63,10.55c0-.17,1.54-.75,7.28-3.17,5-2.1,5.59-2.44,6-2.87a1.47,1.47,0,0,1,.79-.44c.83-.12,1.59.7,1.84,1,2.1,2.24,4.74,4,6.5,6.52,1.43,2,3.48,4.17,7.59,8.46,6.15,6.43,11.5,10,11.23,10.35-.13.18-1.33-.5-3.45-1.69-2.8-1.57-4.81-2.95-5.27-3.26a67.13,67.13,0,0,1-8-6.34c-2.29-2.12-4.18-4.19-5.39-5.52-4-4.39-3.86-4.88-5.14-5.33s-2-.13-10,1.63C188.75,10.48,187.67,10.7,187.63,10.55Z"/><path class="cls-6" d="M239.48,55.71c-.18,1.61,2.54,3.09,5.7,4.83a15.4,15.4,0,0,0,4.14,1.82c3.1.72,3.93-.42,6.78,0,1.73.25,3.43,1.28,6.83,3.32,3.16,1.9,5.11,3.51,6.52,2.76.1,0,.73-.32.76-.75.05-.79-2-1.08-4.33-2.45a20.81,20.81,0,0,1-5.27-4.64c-1.43-1.72-1.65-2.53-2.7-2.76-1.4-.31-1.91.94-4,1.07a6.61,6.61,0,0,1-4.26-1.38c-1.18-.93-.87-1.44-2.07-2.51a6,6,0,0,0-4.71-1.69C241.53,53.53,239.61,54.43,239.48,55.71Z"/><path class="cls-7" d="M179,32a14.48,14.48,0,0,0-1.28-2.38,6.62,6.62,0,0,0-2-2.16,5.76,5.76,0,0,0-4.42-.69c-.5.14-.86.35-1.32.18-.65-.23-.64-.94-1.16-1.69-.66-1-1.71-1.27-3.82-1.91s-2.52-.44-2.73-.91c-.46-1,1.78-3,2.76-3.7a11.11,11.11,0,0,1,4.3-1.85c.17,0,.48-.05,1.06-.16.29-.05.43-.07.43-.05a7.4,7.4,0,0,1-1.23.47l-1.48.49a15.34,15.34,0,0,0-1.63.71,10.83,10.83,0,0,0-2.59,1.95c-.67.67-1.21,1.23-1.06,1.68s.66.48,1.72.75,1.05.18,1.67.34a4.88,4.88,0,0,1,2.47,1.19c.86.89.51,1.67,1.2,2s1.22-.36,2.63-.47a5.62,5.62,0,0,1,4.11,1.63,8.82,8.82,0,0,1,1.24,2A12.76,12.76,0,0,1,179,32Z"/><path class="cls-7" d="M200.74,41.28c-.21-.27-.26-.32-.27-.31a18.94,18.94,0,0,0,1.75,2.78A10.19,10.19,0,0,0,204.15,46a4.33,4.33,0,0,0,1.54.92,4.86,4.86,0,0,0,3.47-.59,2,2,0,0,0,.5-.37c.26-.26.46-.6.4-.65s-.47.43-1.07.76a3.66,3.66,0,0,1-2.11.37c-1.38-.13-2.3-1-3.56-2.15a13.79,13.79,0,0,1-1.7-1.89"/><path class="cls-6" d="M167.12,46.55a9.13,9.13,0,0,0-.92,3.22c-.09,1.24-.28,3.57,1.26,4.72a4,4,0,0,0,3.47.38,5.12,5.12,0,0,0,3.13-4.47c.14-2.19-1.43-2.36-2.55-6.57-.17-.67-.27-1.2-.66-1.34C169.87,42.15,168.05,44.57,167.12,46.55Z"/><path class="cls-7" d="M167.32,48.13a5.85,5.85,0,0,0-.59,2.66,4.1,4.1,0,0,0,.56,2.64,2.62,2.62,0,0,0,1.54,1.13,2.53,2.53,0,0,0,1.75-.29c.14-.07.42-.23.4-.29s-.34,0-.69.07a3,3,0,0,1-1.63-.1,2.14,2.14,0,0,1-.94-1.25,6.07,6.07,0,0,1-.37-1.81,12,12,0,0,1-.09-1.57C167.27,48.52,167.37,48.14,167.32,48.13Z"/><path class="cls-6" d="M181.1,42.33a10.07,10.07,0,0,0,.5,2.88,1.7,1.7,0,0,0,1.76,1.48,2.36,2.36,0,0,0,2-1,2.45,2.45,0,0,0,.31-1.88c-.17-.58-.5-.74-1.82-1.85-1.61-1.35-1.91-1.76-2.26-1.63S181.14,41.43,181.1,42.33Z"/><path class="cls-7" d="M181.48,42.41a9,9,0,0,0,.16,1.67c.2,1.35.34,1.61.53,1.81a1.79,1.79,0,0,0,.88.48,2.19,2.19,0,0,0,1.79-.34,7,7,0,0,1-1,.09,2,2,0,0,1-1.11-.25c-.31-.21-.46-.7-.74-1.68,0-.06-.17-.6-.38-1.28C181.54,42.52,181.5,42.4,181.48,42.41Z"/><path class="cls-7" d="M240.54,56.5a19.61,19.61,0,0,0,2.58,2,24,24,0,0,0,2.57,1.69,12.35,12.35,0,0,0,3.6,1.54,9.07,9.07,0,0,0,3.2.16c.17,0,.38,0,.38-.07a7.09,7.09,0,0,0-1.39-.24,18.43,18.43,0,0,1-2.64-.63,21.59,21.59,0,0,1-3.21-1.64c-1.83-1-1.79-.94-2.65-1.42C241.38,57,240.58,56.45,240.54,56.5Z"/><text class="cls-8" transform="translate(0 79.24)"><tspan class="cls-9">R</tspan><tspan x="40.92" y="0">eci</tspan></text></g></g></svg>